<svg xmlns="http://www.w3.org/2000/svg" viewBox="0 0 64 64"><g data-name="filled outline"><path fill="#80d8ff" d="M28.43,17a1,1,0,0,1,0-2H11a2,2,0,0,0-2,2V43H53V17Z"/><path fill="#fff" d="M32,21a1,1,0,1,1,0-2h0a1,1,0,0,1,0,2Z"/><path fill="#039be5" d="M36,45a1,1,0,0,1-1,1H29a1,1,0,0,1-1-1H6.17A3,3,0,0,0,9,47H55a3,3,0,0,0,2.83-2Z"/><path fill="#013d66" d="M59,43H55V17a2,2,0,0,0-2-2H28.43a1,1,0,0,0,0,2H53V43H11V17H24.43a1,1,0,0,0,0-2H11a2,2,0,0,0-2,2V43H5a1,1,0,0,0-1,1,5,5,0,0,0,5,5H55a5,5,0,0,0,5-5A1,1,0,0,0,59,43Zm-4,4H9a3,3,0,0,1-2.83-2H28a1,1,0,0,0,1,1h6a1,1,0,0,0,1-1H57.83A3,3,0,0,1,55,47Z"/></g></svg>