<svg version="1.0" xmlns="http://www.w3.org/2000/svg"
 width="300.000000pt" height="300.000000pt" viewBox="0 0 300.000000 300.000000"
 preserveAspectRatio="xMidYMid meet">

<g transform="translate(0.000000,300.000000) scale(0.100000,-0.100000)"
fill="#000000" stroke="none">
<path d="M550 2711 c-98 -31 -187 -106 -236 -201 l-29 -55 0 -955 0 -955 29
-58 c35 -68 118 -150 183 -180 l48 -22 942 -3 941 -2 59 21 c81 31 181 131
212 212 l21 59 -2 941 -3 942 -22 48 c-30 65 -112 148 -180 183 l-58 29 -940
2 c-517 1 -951 -2 -965 -6z m659 -621 c55 -28 107 -93 121 -151 33 -136 -74
-269 -216 -269 -156 0 -258 139 -213 291 37 121 194 188 308 129z m769 4 c144
-60 179 -258 65 -366 -107 -102 -292 -67 -354 67 -36 78 -19 187 39 249 58 62
169 84 250 50z m-780 -780 c147 -61 184 -250 71 -363 -146 -145 -392 -34 -377
170 11 152 168 251 306 193z m811 -17 c64 -43 95 -97 99 -177 5 -81 -16 -130
-79 -183 -142 -122 -359 -18 -359 173 0 87 45 160 123 200 61 31 158 25 216
-13z"/>
</g>
</svg>
