<?xml version="1.0" encoding="UTF-8" standalone="no"?>
<!DOCTYPE svg PUBLIC "-//W3C//DTD SVG 1.1//EN" "http://www.w3.org/Graphics/SVG/1.1/DTD/svg11.dtd">
<svg version="1.1" xmlns="http://www.w3.org/2000/svg" xmlns:xlink="http://www.w3.org/1999/xlink" preserveAspectRatio="xMidYMid meet" viewBox="0 0 640 640" width="640" height="640"><defs><path d="M178.41 89.6L49.29 320.05L181.75 550.4L461.61 550.4L590.66 320L461.59 89.6L178.41 89.6ZM230.4 192C285.36 192 315.89 192 322 192C391.65 192 448 249.25 448 320C448 390.75 391.65 448 322 448C315.89 448 285.36 448 230.4 448L230.4 192ZM281.6 243.2L281.6 396.8C304.64 396.8 317.44 396.8 320 396.8C362.36 396.8 396.8 362.36 396.8 320C396.8 277.64 362.36 243.2 320 243.2C314.88 243.2 302.08 243.2 281.6 243.2Z" id="b2bMQ9EYZn"></path></defs><g><g><g><use xlink:href="#b2bMQ9EYZn" opacity="1" fill="#ffffff" fill-opacity="1"></use><g><use xlink:href="#b2bMQ9EYZn" opacity="1" fill-opacity="0" stroke="#000000" stroke-width="1" stroke-opacity="0"></use></g></g></g></g></svg>