<?xml version="1.0" encoding="iso-8859-1"?>
<!-- Generator: Adobe Illustrator 19.0.0, SVG Export Plug-In . SVG Version: 6.00 Build 0)  -->
<svg version="1.1" id="Capa_1" xmlns="http://www.w3.org/2000/svg" xmlns:xlink="http://www.w3.org/1999/xlink" x="0px" y="0px"
	 viewBox="0 0 512 512" style="enable-background:new 0 0 512 512;" xml:space="preserve">
<path style="fill:#ED5A81;" d="M447.351,80.237v72.881c0,8.101,6.566,14.667,14.667,14.667s14.667-6.567,14.667-14.667V88.602
	L447.351,80.237z"/>
<path style="fill:#F96989;" d="M451.416,161.175c-0.695,18.039-5.731,63.792-37.072,89.949c-3.794,3.167-3.691,9.043,0.124,12.185
	l15.935,13.127c6.032,4.969,15.132,3.08,18.637-3.904c8.715-17.357,21.84-54.658,22.53-110.36
	C465.653,167.264,456.826,166.843,451.416,161.175z"/>
<path style="fill:#F4D44E;" d="M247.208,226.489l-110.114,22.306L15.75,346.165C5.793,354.154,0,366.23,0,378.996v90.009
	l235.904-189.296C252.133,266.686,256.411,244.288,247.208,226.489z"/>
<path style="fill:#E8C842;" d="M22.994,374.706l171.37-137.513l-57.27,11.602L15.75,346.165C5.793,354.154,0,366.23,0,378.996
	v26.629C4.839,393.668,12.685,382.979,22.994,374.706z"/>
<path style="fill:#F4D44E;" d="M381.614,359.113l-104.28,10.715L100.159,512h139.088c12.588,0,24.798-4.293,34.616-12.172
	l95.961-77.002C389.258,407.23,393.842,379.992,381.614,359.113z"/>
<polygon style="fill:#E8C842;" points="323.221,365.113 277.335,369.828 100.159,512 140.169,512 "/>
<path style="fill:#F4D44E;" d="M348.265,258.952L230.148,284.32L0,468.653V489.1C0,501.748,10.253,512,22.9,512h77.319
	l237.079-190.24C356.463,306.381,360.777,279.368,348.265,258.952z"/>
<path style="fill:#F96989;" d="M277.343,369.712c0,0-1.609,20.68,8.607,30.84c10.216,10.16,33.201,12.337,50.713,0
	c17.512-12.336,84.643-74.745,81.36-100.87c-4.792-38.13-93.427,32.321-93.427,32.321L277.343,369.712z"/>
<path style="fill:#ED5A81;" d="M418.022,299.683c-4.792-38.13-93.427,32.321-93.427,32.321l-47.252,37.709
	c0,0-1.301,16.77,5.902,27.526c23.561-18.759,100.929-85.691,130.683-80.994C417.014,309.923,418.597,304.248,418.022,299.683z"/>
<path style="fill:#F96989;" d="M512,13.037C512,5.866,506.134,0,498.963,0h-71.717c-7.17,0-13.036,5.866-13.036,13.037v49.08
	c0,6.961,4.616,13.077,11.31,14.985l69.125,19.711c8.699,2.481,17.356-4.052,17.356-13.1V13.037z"/>
<path style="fill:#ED5A81;" d="M440.531,8.292c0-3.143,1.127-6.035,2.997-8.292h-16.283c-7.17,0-13.036,5.866-13.036,13.037v49.08
	c0,6.961,4.616,13.077,11.309,14.985l15.261,4.352C440.303,78.859,440.634,82.709,440.531,8.292z"/>
<path style="fill:#E8C842;" d="M26.931,477.533l254.514-204.23l-51.296,11.018L0,468.653V489.1c0,5.431,1.894,10.416,5.053,14.341
	C10.539,493.592,17.92,484.764,26.931,477.533z"/>
<path style="fill:#F96989;" d="M137.093,248.796c0,0-1.533,19.812,8.2,29.544c9.733,9.733,31.631,11.818,48.315,0
	c16.685-11.818,80.641-71.604,77.512-96.63c-4.566-36.527-89.01,30.962-89.01,30.962L137.093,248.796z"/>
<path style="fill:#ED5A81;" d="M189.338,241.263c0,0,52.469-41.929,76.923-41.791c3.565-6.817,5.463-12.937,4.861-17.764
	c-4.566-36.527-89.01,30.962-89.01,30.962l-45.018,36.124c0,0-1.432,18.528,7.277,28.551L189.338,241.263z"/>
<path style="fill:#F96989;" d="M230.149,284.32c0,0-1.624,20.99,8.688,31.302s33.513,12.521,51.19,0
	c17.678-12.521,85.44-75.865,82.125-102.381c-4.837-38.702-94.306,32.805-94.306,32.805L230.149,284.32z"/>
<path style="fill:#ED5A81;" d="M282.567,272.375c0,0,62.937-50.296,86.088-43.678c2.69-5.87,4.034-11.15,3.496-15.455
	c-4.837-38.702-94.307,32.805-94.307,32.805l-47.696,38.274c0,0-1.177,15.298,4.895,26.19L282.567,272.375z"/>
<g>
</g>
<g>
</g>
<g>
</g>
<g>
</g>
<g>
</g>
<g>
</g>
<g>
</g>
<g>
</g>
<g>
</g>
<g>
</g>
<g>
</g>
<g>
</g>
<g>
</g>
<g>
</g>
<g>
</g>
</svg>
